<svg width="186" height="178" viewBox="0 0 186 178" fill="none" xmlns="http://www.w3.org/2000/svg">
<path d="M84.7032 7.93994C89.3432 3.49951 96.6568 3.49951 101.297 7.93994L176.941 80.3303C181.878 85.0556 181.878 92.9444 176.941 97.6697L101.297 170.06C96.6568 174.5 89.3432 174.5 84.7032 170.06L9.05932 97.6697C4.1217 92.9444 4.12171 85.0556 9.05933 80.3303L84.7032 7.93994Z" fill="#844DF9"/>
<path d="M84.7032 7.93994C89.3432 3.49951 96.6568 3.49951 101.297 7.93994L176.941 80.3303C181.878 85.0556 181.878 92.9444 176.941 97.6697L101.297 170.06C96.6568 174.5 89.3432 174.5 84.7032 170.06L9.05932 97.6697C4.1217 92.9444 4.12171 85.0556 9.05933 80.3303L84.7032 7.93994Z" fill="url(#paint0_linear)" fill-opacity="0.7"/>
<path d="M83.407 44.7421C88.8739 39.6328 97.3922 39.7257 102.746 44.9531L138.117 79.4857C143.83 85.0628 143.729 94.2804 137.896 99.7316L101.781 133.485C96.3138 138.594 87.7956 138.501 82.4414 133.274L47.0706 98.741C41.3581 93.1638 41.4586 83.9463 47.2914 78.4951L83.407 44.7421Z" fill="#FBFBFB"/>
<defs>
<linearGradient id="paint0_linear" x1="93" y1="0" x2="93" y2="178" gradientUnits="userSpaceOnUse">
<stop stop-color="#1DC1CC"/>
<stop offset="1" stop-color="white" stop-opacity="0"/>
</linearGradient>
</defs>
</svg>
